<svg data-v-fde0c5aa="" xmlns="http://www.w3.org/2000/svg" viewBox="0 0 300 300" class="iconLeftSlogan"><!----><defs data-v-fde0c5aa=""><!----></defs><rect data-v-fde0c5aa="" fill="transparent" x="0" y="0" width="300px" height="300px" class="logo-background-square"></rect><defs data-v-fde0c5aa=""><!----></defs><g data-v-fde0c5aa="" id="435632e7-6e7b-432e-b1bf-2fb4d3e02866" fill="#FFFFFF" transform="matrix(4.916805170431288,0,0,4.916805170431288,133.14642625119546,97.44505139058812)"><path d="M1.13 4.05L1.13 13.73L2.56 13.73L2.56 9.59L5.84 9.59L5.84 8.29L2.56 8.29L2.56 5.38L6.96 5.38L6.96 4.05ZM8.39 3.84L8.39 13.73L9.72 13.73L9.72 3.39ZM17.81 10.49C17.82 10.33 17.84 10.18 17.84 10.00C17.84 7.52 16.52 6.15 14.70 6.15C12.88 6.15 11.58 7.52 11.58 10.00C11.58 12.60 13.02 13.92 14.78 13.92C16.11 13.92 16.94 13.17 17.35 12.61L16.46 11.84C16.13 12.33 15.57 12.71 14.84 12.71C13.86 12.71 12.98 12.03 12.82 10.49ZM14.71 7.35C15.71 7.35 16.44 8.08 16.59 9.49L12.82 9.49C12.96 8.12 13.69 7.35 14.71 7.35ZM23.98 6.33L22.19 8.85L20.38 6.33L18.94 6.33L21.35 9.66L18.47 13.73L19.95 13.73L22.12 10.63L24.30 13.73L25.80 13.73L22.93 9.74L25.44 6.33Z"></path></g><defs data-v-fde0c5aa=""><linearGradient data-v-fde0c5aa="" gradientTransform="rotate(25)" id="8e7e9a98-1e9b-4811-88b5-ecf1ede36030" x1="0%" y1="0%" x2="100%" y2="0%"><stop data-v-fde0c5aa="" offset="0%" stop-color="#0091FF" stop-opacity="1"></stop><stop data-v-fde0c5aa="" offset="100%" stop-color="#FF26CA" stop-opacity="1"></stop></linearGradient></defs><g data-v-fde0c5aa="" id="4554e92d-1f49-4063-9f22-a70718bbcbce" stroke="none" fill="url(#8e7e9a98-1e9b-4811-88b5-ecf1ede36030)" transform="matrix(1.6908757943745787,0,0,1.6908757943745787,-1.6936169373328198,65.45535724506271)"><path d="M75.247 41.843c-.715-6.531-5.452-13.034-13-17.843-7.463-4.753-7.605-9.219-7.605-9.405v-.577h-5.998V64.41c-2.51-1.511-5.615-2.416-8.995-2.416-8.28 0-14.991 5.369-14.991 11.995 0 6.623 6.711 11.994 14.991 11.994 8.278 0 14.993-5.371 14.993-11.994V30.72a14.326 14.326 0 0 0 4.386 2.337c14.478 4.824 13.587 20.052 10.728 22.915 4.152-4.152 6.052-9.038 5.491-14.129z"></path></g><defs data-v-fde0c5aa=""><linearGradient data-v-fde0c5aa="" gradientTransform="rotate(25)" id="fbd8f740-8093-47be-ae52-2d489d68720b" x1="0%" y1="0%" x2="100%" y2="0%"><stop data-v-fde0c5aa="" offset="0%" stop-color="#FFFFFF" stop-opacity="1"></stop><stop data-v-fde0c5aa="" offset="100%" stop-color="#58E6FF" stop-opacity="1"></stop></linearGradient></defs><g data-v-fde0c5aa="" id="e3cbc545-4c70-43d2-ba50-75db63fdb64d" fill="url(#fbd8f740-8093-47be-ae52-2d489d68720b)" transform="matrix(2.0216263988277055,0,0,2.0216263988277055,137.00424982784335,170.9339937923299)"><path d="M9.51 3.86L10.36 12.60L10.78 12.60L9.73 2.45L5.81 10.70L1.89 2.45L0.84 12.60L1.26 12.60L2.11 3.86L5.81 11.69ZM23.94 10.08C23.94 10.64 23.74 11.15 23.33 11.61C22.93 12.06 22.42 12.29 21.81 12.29C20.76 12.29 20.23 11.60 20.23 10.22L20.23 6.16L19.81 6.16L19.81 10.36C19.81 11.08 19.97 11.65 20.29 12.07C20.60 12.50 21.07 12.71 21.67 12.71C22.26 12.71 22.75 12.57 23.13 12.30C23.51 12.02 23.78 11.64 23.94 11.14L23.94 12.60L24.36 12.60L24.36 6.16L23.94 6.16ZM33.53 10.50L33.11 10.58C33.22 11.16 33.48 11.66 33.87 12.08C34.27 12.50 34.78 12.71 35.39 12.71C35.96 12.71 36.43 12.56 36.79 12.24C37.16 11.93 37.34 11.50 37.34 10.96C37.34 9.99 36.75 9.34 35.57 9.00C35.06 8.85 34.66 8.68 34.38 8.47C34.10 8.26 33.96 7.98 33.96 7.63C33.96 7.28 34.09 7.00 34.35 6.79C34.61 6.58 34.95 6.48 35.39 6.48C36.10 6.48 36.62 6.86 36.95 7.63L37.32 7.45C37.00 6.51 36.35 6.05 35.38 6.05C34.85 6.05 34.40 6.19 34.03 6.47C33.67 6.75 33.49 7.14 33.49 7.64C33.49 7.90 33.53 8.12 33.63 8.31C33.72 8.50 33.87 8.66 34.07 8.80C34.27 8.93 34.46 9.04 34.64 9.12C34.82 9.20 35.07 9.29 35.38 9.39C35.89 9.57 36.27 9.78 36.51 10.01C36.75 10.24 36.88 10.57 36.88 11.00C36.88 11.38 36.75 11.68 36.48 11.92C36.22 12.16 35.85 12.28 35.38 12.28C34.86 12.28 34.43 12.09 34.11 11.71C33.79 11.33 33.60 10.93 33.53 10.50ZM46.09 3.15C46.09 3.26 46.12 3.36 46.19 3.43C46.26 3.50 46.36 3.54 46.48 3.54C46.60 3.54 46.70 3.50 46.77 3.43C46.84 3.36 46.87 3.26 46.87 3.15C46.87 3.04 46.84 2.94 46.77 2.87C46.70 2.80 46.60 2.76 46.48 2.76C46.36 2.76 46.26 2.80 46.19 2.87C46.12 2.94 46.09 3.04 46.09 3.15ZM46.27 6.16L46.27 12.60L46.69 12.60L46.69 6.16ZM56.06 9.38C56.06 8.55 56.31 7.86 56.80 7.30C57.30 6.75 57.95 6.47 58.74 6.47C59.69 6.47 60.39 6.83 60.84 7.56L60.84 6.87C60.37 6.32 59.67 6.05 58.74 6.05C57.86 6.05 57.12 6.36 56.52 6.99C55.92 7.62 55.62 8.42 55.62 9.38C55.62 10.34 55.92 11.14 56.52 11.77C57.12 12.40 57.86 12.71 58.74 12.71C59.68 12.71 60.38 12.44 60.84 11.89L60.84 11.20C60.61 11.63 60.32 11.92 59.98 12.07C59.63 12.22 59.22 12.29 58.74 12.29C57.95 12.29 57.30 12.01 56.80 11.46C56.31 10.90 56.06 10.21 56.06 9.38Z"></path></g></svg>